<svg width="986" height="53" viewBox="0 0 986 53" fill="none" xmlns="http://www.w3.org/2000/svg">
<path d="M4.34082 40.7119L10.083 41.3271H12.5439C15.7113 41.3271 18.0013 40.6777 19.4141 39.3789C20.8496 38.0801 21.5674 35.8926 21.5674 32.8164V5.2334C21.5674 4.34473 21.875 3.58138 22.4902 2.94336C23.1283 2.30534 23.8916 1.98633 24.7803 1.98633H31.1377C32.0719 1.98633 32.8581 2.30534 33.4961 2.94336C34.1341 3.58138 34.4531 4.34473 34.4531 5.2334V32.7139C34.4531 38.5472 32.5163 43.0589 28.6426 46.249C24.7689 49.4163 19.5166 51 12.8857 51H3.21289C2.32422 51 1.56087 50.6924 0.922852 50.0771C0.307617 49.4391 0 48.6758 0 47.7871V43.9248C0 43.0361 0.296224 42.2842 0.888672 41.6689C1.50391 41.0309 2.27865 40.7119 3.21289 40.7119H4.34082ZM153.672 49.5303C153.672 50.5101 153.091 51 151.929 51H143.726C142.86 51 141.903 50.6924 140.854 50.0771C139.829 49.4391 139.043 48.6758 138.496 47.7871L132.686 38.6953C130.293 34.9583 127.399 33.0898 124.004 33.0898H115.664V47.7871C115.664 48.6758 115.345 49.4391 114.707 50.0771C114.092 50.6924 113.34 51 112.451 51H106.025C105.137 51 104.373 50.6924 103.735 50.0771C103.097 49.4391 102.778 48.6758 102.778 47.7871V5.2334C102.778 4.34473 103.086 3.58138 103.701 2.94336C104.316 2.30534 105.068 1.98633 105.957 1.98633H134.155C139.373 1.98633 143.646 3.3877 146.973 6.19043C150.322 8.99316 151.997 12.7757 151.997 17.5381C151.997 24.1689 147.702 28.3275 139.111 30.0137C140.479 30.515 141.743 31.3809 142.905 32.6113C144.067 33.819 145.4 35.585 146.904 37.9092L153.125 47.7871C153.49 48.4251 153.672 49.0062 153.672 49.5303ZM115.664 23.417H130.225C132.572 23.417 134.634 22.9499 136.411 22.0156C138.211 21.0814 139.111 19.5889 139.111 17.5381C139.111 15.4873 138.211 13.9948 136.411 13.0605C134.634 12.1263 132.572 11.6592 130.225 11.6592H115.664V23.417ZM216.05 47.8555L224.629 15.3164C226.953 6.45247 234.518 2.00911 247.324 1.98633H265.747C266.59 1.98633 267.285 2.30534 267.832 2.94336C268.402 3.58138 268.687 4.32194 268.687 5.16504V47.8555C268.687 48.7441 268.368 49.4961 267.729 50.1113C267.091 50.7038 266.328 51 265.439 51H259.014C258.079 51 257.305 50.7038 256.689 50.1113C256.097 49.4961 255.801 48.7214 255.801 47.7871V39.1738H231.499L229.209 47.7871C228.981 48.7214 228.468 49.4961 227.671 50.1113C226.873 50.7038 226.03 51 225.142 51H218.408C217.52 51 216.882 50.7493 216.494 50.248C216.107 49.724 215.913 49.2682 215.913 48.8809C215.936 48.4935 215.981 48.1517 216.05 47.8555ZM234.028 29.501H255.801V11.6592H246.06C243.872 11.6592 241.958 12.2858 240.317 13.5391C238.7 14.7695 237.606 16.4329 237.036 18.5293L234.028 29.501ZM354.478 47.8555V5.30176C354.478 4.36751 354.797 3.58138 355.435 2.94336C356.073 2.30534 356.836 1.98633 357.725 1.98633H376.831C386.72 1.98633 393.91 3.96875 398.398 7.93359C402.91 11.8757 405.166 18.0736 405.166 26.5273C405.166 34.9583 402.91 41.1449 398.398 45.0869C393.91 49.029 386.72 51 376.831 51H357.725C356.836 51 356.073 50.7038 355.435 50.1113C354.797 49.4961 354.478 48.7441 354.478 47.8555ZM367.363 41.3271H376.455C382.585 41.3271 386.755 40.2106 388.965 37.9775C391.175 35.7445 392.28 31.9277 392.28 26.5273C392.28 21.1042 391.175 17.276 388.965 15.043C386.755 12.7871 382.585 11.6592 376.455 11.6592H367.363V41.3271ZM495.981 47.7188V5.16504C495.981 4.27637 496.3 3.52441 496.938 2.90918C497.576 2.29395 498.34 1.98633 499.229 1.98633H538.638C539.526 1.98633 540.278 2.30534 540.894 2.94336C541.532 3.58138 541.851 4.34473 541.851 5.2334V8.44629C541.851 9.33496 541.532 10.0983 540.894 10.7363C540.278 11.3516 539.526 11.6592 538.638 11.6592H508.867V21.6055H534.502C535.391 21.6055 536.143 21.9245 536.758 22.5625C537.396 23.1777 537.715 23.9297 537.715 24.8184V28.0312C537.715 28.9199 537.396 29.6833 536.758 30.3213C536.143 30.9365 535.391 31.2441 534.502 31.2441H508.867V41.3271H538.569C539.435 41.3271 540.176 41.6348 540.791 42.25C541.406 42.8652 541.714 43.6172 541.714 44.5059V47.7871C541.714 48.6758 541.395 49.4391 540.757 50.0771C540.119 50.6924 539.355 51 538.467 51H499.229C498.34 51 497.576 50.6924 496.938 50.0771C496.3 49.4391 495.981 48.653 495.981 47.7188ZM598.486 8.44629V5.2334C598.486 4.29915 598.794 3.52441 599.409 2.90918C600.024 2.29395 600.799 1.98633 601.733 1.98633H645.107C646.042 1.98633 646.816 2.29395 647.432 2.90918C648.047 3.52441 648.354 4.29915 648.354 5.2334V8.44629C648.354 9.38053 648.047 10.1553 647.432 10.7705C646.816 11.363 646.042 11.6592 645.107 11.6592H629.863V47.8555C629.863 48.7441 629.544 49.4961 628.906 50.1113C628.291 50.7038 627.539 51 626.65 51H620.19C619.302 51 618.538 50.7038 617.9 50.1113C617.285 49.4961 616.978 48.7441 616.978 47.8555V11.6592H601.733C600.799 11.6592 600.024 11.363 599.409 10.7705C598.794 10.1553 598.486 9.38053 598.486 8.44629ZM711.655 47.8555V5.30176C711.655 4.36751 711.974 3.58138 712.612 2.94336C713.25 2.30534 714.014 1.98633 714.902 1.98633H734.009C743.898 1.98633 751.087 3.96875 755.576 7.93359C760.088 11.8757 762.344 18.0736 762.344 26.5273C762.344 34.9583 760.088 41.1449 755.576 45.0869C751.087 49.029 743.898 51 734.009 51H714.902C714.014 51 713.25 50.7038 712.612 50.1113C711.974 49.4961 711.655 48.7441 711.655 47.8555ZM724.541 41.3271H733.633C739.762 41.3271 743.932 40.2106 746.143 37.9775C748.353 35.7445 749.458 31.9277 749.458 26.5273C749.458 21.1042 748.353 17.276 746.143 15.043C743.932 12.7871 739.762 11.6592 733.633 11.6592H724.541V41.3271ZM827.729 47.7871V5.2334C827.729 4.34473 828.037 3.58138 828.652 2.94336C829.268 2.30534 830.02 1.98633 830.908 1.98633H840.957C841.755 1.98633 842.598 2.30534 843.486 2.94336C844.375 3.58138 845.104 4.34473 845.674 5.2334L866.318 36.9863V5.16504C866.318 4.27637 866.626 3.52441 867.241 2.90918C867.879 2.29395 868.643 1.98633 869.531 1.98633H875.41C876.299 1.98633 877.051 2.29395 877.666 2.90918C878.304 3.52441 878.623 4.29915 878.623 5.2334V47.7871C878.623 48.6758 878.304 49.4391 877.666 50.0771C877.051 50.6924 876.299 51 875.41 51H864.062C863.174 51 862.262 50.6924 861.328 50.0771C860.394 49.4391 859.653 48.6758 859.106 47.7871L840.205 18.4609V47.7871C840.205 48.6758 839.886 49.4391 839.248 50.0771C838.633 50.6924 837.881 51 836.992 51H830.977C830.088 51 829.325 50.6924 828.687 50.0771C828.049 49.4391 827.729 48.6758 827.729 47.7871ZM939.702 47.7188V5.16504C939.702 4.27637 940.021 3.52441 940.659 2.90918C941.297 2.29395 942.061 1.98633 942.949 1.98633H982.358C983.247 1.98633 983.999 2.30534 984.614 2.94336C985.252 3.58138 985.571 4.34473 985.571 5.2334V8.44629C985.571 9.33496 985.252 10.0983 984.614 10.7363C983.999 11.3516 983.247 11.6592 982.358 11.6592H952.588V21.6055H978.223C979.111 21.6055 979.863 21.9245 980.479 22.5625C981.117 23.1777 981.436 23.9297 981.436 24.8184V28.0312C981.436 28.9199 981.117 29.6833 980.479 30.3213C979.863 30.9365 979.111 31.2441 978.223 31.2441H952.588V41.3271H982.29C983.156 41.3271 983.896 41.6348 984.512 42.25C985.127 42.8652 985.435 43.6172 985.435 44.5059V47.7871C985.435 48.6758 985.116 49.4391 984.478 50.0771C983.84 50.6924 983.076 51 982.188 51H942.949C942.061 51 941.297 50.6924 940.659 50.0771C940.021 49.4391 939.702 48.653 939.702 47.7188Z" fill="black"/>
<path d="M88.7305 45.9414C84.082 50.0202 77.2461 52.0596 68.2227 52.0596C59.222 52.0596 52.3861 50.0202 47.7148 45.9414C43.0436 41.8398 40.708 35.3571 40.708 26.4932C40.708 17.6292 43.0436 11.1579 47.7148 7.0791C52.3861 3.00033 59.222 0.960938 68.2227 0.960938C77.2461 0.960938 84.082 3.00033 88.7305 7.0791C93.4017 11.1579 95.7373 17.6292 95.7373 26.4932C95.7373 35.3571 93.4017 41.8398 88.7305 45.9414ZM79.3994 14.291C77.098 11.5566 73.3724 10.1895 68.2227 10.1895C63.0957 10.1895 59.3701 11.5566 57.0459 14.291C54.7445 17.0254 53.5938 21.1042 53.5938 26.5273C53.5938 31.9277 54.7445 35.9951 57.0459 38.7295C59.3701 41.4411 63.0957 42.7969 68.2227 42.7969C73.3724 42.7969 77.098 41.4411 79.3994 38.7295C81.7008 35.9951 82.8516 31.9277 82.8516 26.5273C82.8516 21.1042 81.7008 17.0254 79.3994 14.291ZM159.38 47.7871V5.2334C159.38 4.34473 159.688 3.58138 160.303 2.94336C160.918 2.30534 161.67 1.98633 162.559 1.98633H172.607C173.405 1.98633 174.248 2.30534 175.137 2.94336C176.025 3.58138 176.755 4.34473 177.324 5.2334L197.969 36.9863V5.16504C197.969 4.27637 198.276 3.52441 198.892 2.90918C199.53 2.29395 200.293 1.98633 201.182 1.98633H207.061C207.949 1.98633 208.701 2.29395 209.316 2.90918C209.954 3.52441 210.273 4.29915 210.273 5.2334V47.7871C210.273 48.6758 209.954 49.4391 209.316 50.0771C208.701 50.6924 207.949 51 207.061 51H195.713C194.824 51 193.913 50.6924 192.979 50.0771C192.044 49.4391 191.304 48.6758 190.757 47.7871L171.855 18.4609V47.7871C171.855 48.6758 171.536 49.4391 170.898 50.0771C170.283 50.6924 169.531 51 168.643 51H162.627C161.738 51 160.975 50.6924 160.337 50.0771C159.699 49.4391 159.38 48.6758 159.38 47.7871ZM278.462 47.8555V5.30176C278.462 4.36751 278.781 3.58138 279.419 2.94336C280.057 2.30534 280.82 1.98633 281.709 1.98633H288.135C289.023 1.98633 289.775 2.30534 290.391 2.94336C291.029 3.58138 291.348 4.36751 291.348 5.30176V41.3271H321.118C322.007 41.3271 322.759 41.6462 323.374 42.2842C324.012 42.9222 324.331 43.6855 324.331 44.5742V47.7871C324.331 48.6758 324.012 49.4391 323.374 50.0771C322.759 50.6924 322.007 51 321.118 51H281.709C280.82 51 280.057 50.7038 279.419 50.1113C278.781 49.4961 278.462 48.7441 278.462 47.8555ZM457.393 45.9414C452.744 50.0202 445.908 52.0596 436.885 52.0596C427.884 52.0596 421.048 50.0202 416.377 45.9414C411.706 41.8398 409.37 35.3571 409.37 26.4932C409.37 17.6292 411.706 11.1579 416.377 7.0791C421.048 3.00033 427.884 0.960938 436.885 0.960938C445.908 0.960938 452.744 3.00033 457.393 7.0791C462.064 11.1579 464.399 17.6292 464.399 26.4932C464.399 35.3571 462.064 41.8398 457.393 45.9414ZM448.062 14.291C445.76 11.5566 442.035 10.1895 436.885 10.1895C431.758 10.1895 428.032 11.5566 425.708 14.291C423.407 17.0254 422.256 21.1042 422.256 26.5273C422.256 31.9277 423.407 35.9951 425.708 38.7295C428.032 41.4411 431.758 42.7969 436.885 42.7969C442.035 42.7969 445.76 41.4411 448.062 38.7295C450.363 35.9951 451.514 31.9277 451.514 26.5273C451.514 21.1042 450.363 17.0254 448.062 14.291ZM545.337 38.4561C545.337 37.1117 545.736 36.1546 546.533 35.585C547.331 34.9925 548.105 34.6963 548.857 34.6963H552.925C554.976 34.6963 556.536 35.8128 557.607 38.0459C558.678 40.279 561.082 41.3955 564.819 41.3955L576.782 41.6348C580.793 41.6348 582.798 40.3245 582.798 37.7041C582.798 35.7217 580.348 34.1608 575.449 33.0215C573.262 32.4974 570.846 31.9847 568.203 31.4834C565.56 30.9593 562.928 30.3099 560.308 29.5352C557.71 28.7604 555.317 27.849 553.13 26.8008C550.942 25.7526 549.165 24.3171 547.798 22.4941C546.453 20.6484 545.781 18.4837 545.781 16C545.781 11.4199 547.41 7.89941 550.669 5.43848C553.927 2.95475 559.533 1.71289 567.485 1.71289L576.167 1.91797C580.838 1.91797 585.042 3.12565 588.779 5.54102C592.539 7.93359 594.419 10.93 594.419 14.5303C594.419 15.8747 594.02 16.8431 593.223 17.4355C592.425 18.028 591.662 18.3242 590.933 18.3242H586.865C584.814 18.3242 583.254 17.2077 582.183 14.9746C581.112 12.7188 578.708 11.5908 574.971 11.5908L564.683 11.3857C560.672 11.3857 558.667 12.696 558.667 15.3164C558.667 16.752 559.932 17.9255 562.461 18.8369C565.013 19.7484 568.089 20.5573 571.689 21.2637C575.312 21.9473 578.947 22.779 582.593 23.7588C586.239 24.7386 589.326 26.3564 591.855 28.6123C594.408 30.8454 595.684 33.6367 595.684 36.9863C595.684 41.5664 594.043 45.0983 590.762 47.582C587.503 50.043 581.909 51.2734 573.979 51.2734L563.623 51.0684C558.952 51.0684 554.736 49.8721 550.977 47.4795C547.217 45.0641 545.337 42.0563 545.337 38.4561ZM653.276 31.6201V5.2334C653.276 4.34473 653.584 3.58138 654.199 2.94336C654.837 2.30534 655.623 1.98633 656.558 1.98633H662.949C663.815 1.98633 664.567 2.30534 665.205 2.94336C665.843 3.58138 666.162 4.34473 666.162 5.2334V31.6885C666.162 35.0381 666.891 37.5332 668.35 39.1738C669.831 40.8145 672.109 41.6348 675.186 41.6348H680.654C683.73 41.6348 685.998 40.8145 687.456 39.1738C688.937 37.5332 689.678 35.0381 689.678 31.6885V5.2334C689.678 4.34473 689.985 3.58138 690.601 2.94336C691.239 2.30534 692.002 1.98633 692.891 1.98633H699.248C700.182 1.98633 700.968 2.30534 701.606 2.94336C702.244 3.58138 702.563 4.34473 702.563 5.2334V31.6201C702.563 37.8636 700.729 42.7057 697.061 46.1465C693.392 49.5645 688.037 51.2734 680.996 51.2734H674.844C667.78 51.2734 662.414 49.5645 658.745 46.1465C655.099 42.7057 653.276 37.8636 653.276 31.6201ZM765.317 47.8555L773.896 15.3164C776.221 6.45247 783.786 2.00911 796.592 1.98633H815.015C815.858 1.98633 816.553 2.30534 817.1 2.94336C817.669 3.58138 817.954 4.32194 817.954 5.16504V47.8555C817.954 48.7441 817.635 49.4961 816.997 50.1113C816.359 50.7038 815.596 51 814.707 51H808.281C807.347 51 806.572 50.7038 805.957 50.1113C805.365 49.4961 805.068 48.7214 805.068 47.7871V39.1738H780.767L778.477 47.7871C778.249 48.7214 777.736 49.4961 776.938 50.1113C776.141 50.7038 775.298 51 774.409 51H767.676C766.787 51 766.149 50.7493 765.762 50.248C765.374 49.724 765.181 49.2682 765.181 48.8809C765.203 48.4935 765.249 48.1517 765.317 47.8555ZM783.296 29.501H805.068V11.6592H795.327C793.14 11.6592 791.226 12.2858 789.585 13.5391C787.967 14.7695 786.873 16.4329 786.304 18.5293L783.296 29.501ZM884.229 8.44629V5.2334C884.229 4.29915 884.536 3.52441 885.151 2.90918C885.767 2.29395 886.541 1.98633 887.476 1.98633H930.85C931.784 1.98633 932.559 2.29395 933.174 2.90918C933.789 3.52441 934.097 4.29915 934.097 5.2334V8.44629C934.097 9.38053 933.789 10.1553 933.174 10.7705C932.559 11.363 931.784 11.6592 930.85 11.6592H915.605V47.8555C915.605 48.7441 915.286 49.4961 914.648 50.1113C914.033 50.7038 913.281 51 912.393 51H905.933C905.044 51 904.281 50.7038 903.643 50.1113C903.027 49.4961 902.72 48.7441 902.72 47.8555V11.6592H887.476C886.541 11.6592 885.767 11.363 885.151 10.7705C884.536 10.1553 884.229 9.38053 884.229 8.44629Z" fill="#6480D3"/>
</svg>
